<?xml version="1.0" encoding="UTF-8"?>
<svg id="Layer_2" data-name="Layer 2" xmlns="http://www.w3.org/2000/svg" viewBox="0 0 106.05 96.8">
  <defs>
    <style>
      .cls-1 {
        fill: #fff;
      }

      .cls-1, .cls-2, .cls-3, .cls-4 {
        stroke-width: 0px;
      }

      .cls-2 {
        fill: #c17281;
      }

      .cls-3 {
        fill: #d14a54;
      }

      .cls-4 {
        fill: #f9b234;
      }
    </style>
  </defs>
  <g id="Logo">
    <g id="Car">
      <path class="cls-4" d="m71.71,28.18c-5.76-.78-12.36-1.32-19.67-1.3-6.33.02-12.12.45-17.26,1.08.05-2.88.1-5.76.15-8.64,5.47-.44,11.41-.69,17.79-.63,7.67.08,14.75.6,21.12,1.35-2.39,1.17-4.78,2.35-7.17,3.52,1.68,1.54,3.37,3.08,5.05,4.62h-.01Z"/>
      <rect class="cls-3" x="34.4" y="17.85" width="1.07" height="36.63"/>
      <polygon class="cls-2" points="61.19 43.52 60.94 44.11 60.94 44.11 56.87 42.45 56.87 42.45 57.11 41.85 57.11 41.85 61.19 43.52 61.19 43.52"/>
      <path class="cls-2" d="m55.8,45.6l-1.35-.52c-.16-.06-.24-.24-.18-.4l2.32-6.02c.06-.16.24-.24.4-.18l1.35.52c.08.03.14.09.17.16.02.05.03.1.03.11,0,.06,0,.1-.02.13-.77,2.01-1.55,4.01-2.32,6.02-.06.16-.24.24-.4.18Z"/>
      <path class="cls-3" d="m75.37,57.14h-39.34c-.88,0-1.59-.73-1.58-1.61.09-4.29.17-8.58.26-12.87,0-.72.51-1.34,1.22-1.5,2.15-.51,4.73-.66,6.85.64,3.3,2.03,2.54,5.77,5.91,7.72,2.91,1.68,7.38,1.15,9.54-1.1,2.35-2.45.6-5.52,2.57-6.94,2.57-1.84,8.4,1.31,11.87,4.94,3,3.14,3.95,6.72,4.26,8.92.13.95-.6,1.79-1.56,1.79h0Z"/>
      <path class="cls-2" d="m75.2,59.2h-39.86c-1.47,0-2.66-1.19-2.66-2.66h0c0-1.47,1.19-2.66,2.66-2.66h39.86c1.47,0,2.66,1.19,2.66,2.66h0c0,.22-.03.58-.19.99-.05.12-.22.52-.59.89-.71.7-1.63.77-1.88.78Z"/>
      <circle class="cls-1" cx="35.58" cy="56.62" r="1.29"/>
      <circle class="cls-1" cx="39.92" cy="56.62" r="1.29"/>
      <path class="cls-1" d="m45.56,56.62c0,.71-.58,1.29-1.29,1.29s-1.29-.58-1.29-1.29.58-1.29,1.29-1.29,1.29.58,1.29,1.29Z"/>
      <circle class="cls-1" cx="48.46" cy="56.62" r="1.29"/>
      <circle class="cls-1" cx="52.8" cy="56.62" r="1.29"/>
      <circle class="cls-1" cx="57.15" cy="56.62" r="1.29"/>
      <path class="cls-1" d="m62.78,56.62c0,.71-.58,1.29-1.29,1.29s-1.29-.58-1.29-1.29.58-1.29,1.29-1.29,1.29.58,1.29,1.29Z"/>
      <path class="cls-1" d="m67.13,56.62c0,.71-.58,1.29-1.29,1.29s-1.29-.58-1.29-1.29.58-1.29,1.29-1.29,1.29.58,1.29,1.29Z"/>
      <circle class="cls-1" cx="70.19" cy="56.62" r="1.29"/>
      <circle class="cls-1" cx="74.7" cy="56.62" r="1.29"/>
      <path class="cls-1" d="m75.77,52.51s-9.14.27-20.42.27-20.42-.27-20.42-.27c0,0,9.14-.27,20.42-.27s20.42.27,20.42.27Z"/>
      <circle class="cls-1" cx="39.87" cy="47.44" r="2.63"/>
      <polygon class="cls-1" points="39.15 21.88 39.65 22.9 40.77 23.06 39.96 23.86 40.15 24.98 39.15 24.45 38.14 24.98 38.33 23.86 37.52 23.06 38.64 22.9 39.15 21.88"/>
      <path class="cls-4" d="m38.99,46.54c.21-.11.38-.17.66-.49h.67v2.13h.35v.5h-1.51v-.5h.38v-1.4l-.38.18-.17-.42Z"/>
      <g>
        <path class="cls-3" d="m47.73,20.62l.94-.06c.41-.03.68.13.8.47.08.21.13.46.15.74s.02.5.01.65c-.02.32-.08.56-.21.71-.12.15-.31.24-.58.25l-.39.03.11,1.82-.55.04-.29-4.65v.02Zm1.35,1.23c-.02-.32-.06-.55-.12-.67-.06-.13-.16-.19-.31-.18l-.35.02.12,1.94.33-.02c.16-.01.26-.08.3-.22s.05-.39.03-.76v-.09s0-.01,0-.01Z"/>
        <path class="cls-3" d="m50.23,22.32c-.02-.48.05-.8.18-.96.14-.16.35-.25.63-.26.28-.02.48.05.61.18s.21.34.25.63c0,.13.03.28.03.47l.11,2.7-.54.04-.02-.36c-.02.09-.08.19-.17.27s-.21.12-.35.13c-.45.02-.69-.32-.72-1.02l-.03-.39c0-.23.05-.42.17-.59.12-.17.46-.36,1-.59l-.02-.31c0-.34-.04-.55-.09-.62-.05-.07-.14-.1-.26-.09s-.2.06-.23.17-.05.29-.04.56v.14s-.53.03-.53.03v-.11s0-.01,0-.01Zm1.19.58c-.21.1-.36.19-.43.25s-.12.12-.16.2c-.04.07-.05.19-.05.36l.03.37c0,.23.03.39.07.49s.12.13.21.14c.1,0,.18-.03.25-.1.07-.06.11-.13.14-.19l-.06-1.51h0Z"/>
        <path class="cls-3" d="m53.91,21l.02.34v.12c-.31.01-.54.13-.67.35l.07,3.22-.54.02-.09-3.96.54-.02v.44c.05-.15.13-.28.25-.37s.26-.14.43-.14h0Z"/>
        <path class="cls-3" d="m54.46,20.3h.54s0,2.62,0,2.62l.77-1.89h.55s-.83,1.95-.83,1.95l.89,2h-.56s-.82-1.93-.82-1.93v1.93s-.53,0-.53,0c0,0-.02-4.7-.02-4.7Z"/>
      </g>
      <polygon class="cls-1" points="64.26 21.7 64.76 22.72 65.89 22.88 65.07 23.68 65.26 24.8 64.26 24.27 63.25 24.8 63.44 23.68 62.63 22.88 63.76 22.72 64.26 21.7"/>
    </g>
    <g id="Big_stars" data-name="Big stars">
      <polygon class="cls-3" points="98.44 65.62 100.25 69.28 104.28 69.86 101.36 72.71 102.05 76.73 98.44 74.83 94.83 76.73 95.52 72.71 92.6 69.86 96.64 69.28 98.44 65.62"/>
      <polygon class="cls-3" points="5.89 65.62 7.7 69.28 11.73 69.86 8.81 72.71 9.5 76.73 5.89 74.83 2.28 76.73 2.97 72.71 .05 69.86 4.09 69.28 5.89 65.62"/>
    </g>
    <g id="Year">
      <g>
        <path class="cls-4" d="m.97,55.37c.44-.22.79-.34,1.35-1.01h1.38v4.38h.72v1.03H1.32v-1.03h.77v-2.87l-.77.36-.36-.86h0Z"/>
        <path class="cls-4" d="m5.41,58.21c.26.15.66.39,1.13.39.57-.02.95-.37.94-1.05-.2.2-.53.38-.94.39-.99.04-1.81-.67-1.81-1.73s.74-1.92,2-1.96c1.27-.04,2.25.87,2.3,2.42.03,1.18-.29,3.08-2.32,3.14-.52.02-1.37-.22-1.83-.61l.53-1.01v.02Zm2.06-1.82c0-.39-.15-.91-.65-.91-.39,0-.71.29-.7.67,0,.3.16.7.63.69.36-.02.6-.29.73-.44h-.01Z"/>
        <path class="cls-4" d="m9.44,55c.28-.3.95-.73,1.66-.73,1.26,0,1.97.65,1.97,1.64,0,.53-.37.83-.57.98.25.18.72.57.72,1.27,0,1.14-1.1,1.7-2.14,1.7-.73,0-1.5-.43-1.8-.87l.79-.82c.29.29.58.5,1.02.5s.7-.21.7-.6c0-.42-.26-.56-.64-.56h-.58v-.92h.56c.37,0,.66-.19.66-.53,0-.42-.36-.61-.68-.61-.29,0-.63.18-.9.46l-.75-.9h-.02Z"/>
        <path class="cls-4" d="m13.58,55.23c.54-.63,1.24-.96,2.01-.96,1.03,0,1.84.65,1.84,1.69,0,.89-.42,1.2-1.24,1.73-.37.24-.98.73-1.16,1.04h1.36v-.62h1.3v1.65h-4.18v-1.12c.43-.7.63-.92,1.13-1.32.55-.49,1.37-.81,1.37-1.29,0-.39-.29-.51-.65-.51-.42,0-.72.34-.95.59l-.84-.88h0Z"/>
      </g>
      <g>
        <path class="cls-4" d="m91.88,55.14v1.46h-1.14v-.59h-1.06v.91h1.25v.88h-1.25v1.08h1.06v-.61h1.14v1.49h-3.98v-.88h.42v-2.87h-.42v-.87s3.98,0,3.98,0Z"/>
        <path class="cls-4" d="m92.21,58.1h1.23c0,.55.55.65.83.66.23,0,.56-.05.56-.33,0-.51-2.54-.3-2.54-1.98,0-.98.92-1.42,1.57-1.42.55,0,1.12.18,1.38.67l.07-.55h1.14v1.66h-1.2c0-.49-.38-.77-.85-.77-.19,0-.46.12-.46.35,0,.68,2.61.52,2.61,2.07,0,1.03-.96,1.4-1.75,1.4-.67,0-1.13-.31-1.38-.61l-.07.51h-1.16v-1.66h.02Z"/>
        <path class="cls-4" d="m101.26,56.86h-.97v-.85h-.55v2.87h.55v.88h-2.46v-.88h.54v-2.87h-.57v.85h-.97v-1.72h4.43v1.72Z"/>
        <path class="cls-4" d="m101.53,58.88h.41v-2.87h-.41v-.87h2.01c1.6,0,2.51.98,2.51,2.24,0,1.51-.91,2.37-2.54,2.37h-1.99v-.88h0Zm2.01,0c.7,0,.99-.67.99-1.49,0-.71-.29-1.37-.99-1.37h-.25v2.87h.25Z"/>
      </g>
    </g>
    <g id="Stars">
      <path class="cls-3" d="m2.8,46.8s.57-.23,1.13-.47l1.13-.44.66-2.43s.35.51.7,1.02c.35.5.71.99.71.99l2.37-.08-1.36,1.93s.19.55.43,1.09c.26.53.52,1.07.52,1.07l-2.32-.54s-.43.42-.85.84c-.43.43-.85.87-.85.87l-.27-2.52s-.13-.08-.32-.2-.43-.29-.68-.45c-.49-.34-.99-.67-.99-.67h-.01Z"/>
      <path class="cls-4" d="m4.41,38.2l1.16-.28c.28-.07.58-.13.81-.18.23-.04.38-.07.38-.07l1.12-2.27s.25.56.5,1.11c.25.54.51,1.08.51,1.08l2.36.31s-.43.41-.86.82c-.23.2-.42.42-.56.59-.14.16-.24.27-.24.27l.61,2.29-2.19-.91s-.5.34-1.01.68c-.51.35-1.01.71-1.01.71l.23-2.51s-.45-.41-.9-.81c-.45-.42-.9-.83-.9-.83h0Z"/>
      <path class="cls-3" d="m7.47,29.68s.6-.04,1.2-.08c.6-.03,1.19-.05,1.19-.05,0,0,.08-.13.21-.33.12-.2.29-.47.5-.71.39-.5.77-1,.77-1,0,0,.14.59.28,1.17.07.29.15.57.2.79.05.21.1.36.1.36l2.27.71s-.12.08-.31.2c-.17.13-.4.3-.63.48-.46.36-.93.71-.93.71l.15,2.33-1.99-1.26s-.56.24-1.13.49c-.29.12-.55.26-.75.37-.2.1-.33.17-.33.17,0,0,.03-.16.08-.39.03-.24.13-.54.22-.84.18-.6.36-1.21.36-1.21,0,0-.37-.47-.74-.95-.36-.49-.73-.97-.73-.97h.01Z"/>
      <path class="cls-4" d="m12.01,21.86s.6.07,1.2.14l1.19.16s.43-.46.86-.92c.21-.23.43-.45.62-.61.18-.16.3-.26.3-.26,0,0,.01.59.07,1.2.07.61.15,1.22.15,1.22l2.09,1.09-2.09,1.04s-.07.58-.15,1.16c-.03.29-.07.57-.1.79,0,.22-.02.37-.02.37l-1.76-1.6s-.15.03-.36.09-.5.14-.78.22c-.58.17-1.15.35-1.15.35,0,0,.24-.59.48-1.17.11-.3.25-.58.36-.79l.18-.35s-.28-.53-.55-1.06l-.54-1.08h0Z"/>
      <path class="cls-3" d="m17.72,14.95s.58.18,1.17.35c.58.18,1.15.37,1.15.37l2.04-1.47s-.05.62-.1,1.24c-.04.61-.08,1.22-.08,1.22l1.88,1.44-2.27.64s-.2.55-.35,1.11c-.13.58-.27,1.16-.27,1.16l-1.46-1.88s-.59.05-1.19.11c-.6.07-1.21.13-1.21.13l1.39-2.12s-.05-.14-.12-.36c-.07-.21-.16-.49-.24-.78-.17-.57-.34-1.15-.34-1.15h0Z"/>
      <path class="cls-4" d="m24.59,9.05s.55.28,1.1.56c.54.29,1.08.57,1.08.57l2.29-1.07s-.16.6-.32,1.19c-.15.59-.3,1.17-.3,1.17l1.6,1.75-2.36.2s-.08.12-.17.33c-.09.2-.22.48-.34.75l-.48,1.08-1.11-2.1s-.6-.05-1.2-.11c-.61-.05-1.22-.09-1.22-.09l1.76-1.82s-.09-.6-.18-1.21c-.09-.62-.15-1.21-.15-1.21h0Z"/>
      <path class="cls-3" d="m32.47,4.54s.48.34.96.71c.48.38.96.76.96.76l2.46-.61s-.27.55-.53,1.1c-.25.55-.5,1.09-.5,1.09l1.27,2.01-1.17-.13c-.6-.08-1.18-.08-1.18-.08l-1.35,1.94-.72-2.26s-.58-.17-1.17-.33c-.6-.16-1.19-.32-1.19-.32l2.07-1.45.04-1.22c.03-.61.06-1.23.06-1.23v.02Z"/>
      <path class="cls-4" d="m39.58,1.9s.43.43.85.86c.41.43.83.87.83.87,0,0,.62-.09,1.25-.18.31-.06.63-.05.87-.06.24,0,.39-.02.39-.02,0,0-.35.48-.7.97-.34.51-.65,1.04-.65,1.04l.95,2.16-2.27-.49s-.42.41-.84.81c-.2.2-.41.4-.56.55-.15.14-.25.26-.25.26l-.37-2.34s-.14-.07-.35-.17c-.2-.09-.48-.2-.75-.31-.56-.22-1.12-.45-1.12-.45l1.1-.62c.27-.17.57-.27.78-.38.22-.1.36-.16.36-.16,0,0,.11-.59.23-1.17.13-.59.25-1.18.25-1.18h0Z"/>
      <path class="cls-3" d="m48.48.09s.34.51.68,1.01c.33.51.66,1.01.66,1.01,0,0,.63.04,1.26.07.31.02.63.04.86.05.23,0,.39.04.39.04,0,0-.11.09-.27.27-.16.17-.38.39-.59.62-.42.45-.83.9-.83.9l.54,2.3-2.15-.94s-.49.31-.98.63c-.24.15-.47.36-.65.49-.17.14-.29.23-.29.23l.06-2.39s-.5-.33-.99-.66c-.51-.33-1.02-.66-1.02-.66,0,0,.6-.2,1.2-.39.3-.1.61-.2.83-.27.23-.08.38-.1.38-.1,0,0,.22-.55.44-1.1l.46-1.1h.01Z"/>
      <path class="cls-4" d="m57.57,0s.24.57.48,1.13c.23.56.46,1.13.46,1.13l2.44.65s-.5.35-1.01.71l-.98.71.11,2.37-1.94-1.36s-.14.05-.34.13c-.2.1-.47.23-.74.36-.53.26-1.05.53-1.05.53l.49-2.33s-.43-.42-.85-.85c-.44-.42-.88-.85-.88-.85l2.51-.28s.32-.52.64-1.05c.32-.54.66-1.01.66-1.01h0Z"/>
      <path class="cls-3" d="m66.42,1.54s.14.58.29,1.16c.07.29.13.58.18.79.05.22.08.37.08.37l2.27,1.14s-.56.25-1.11.49l-1.08.5-.32,2.36s-.41-.43-.81-.87c-.42-.4-.86-.78-.86-.78l-2.28.6.9-2.19s-.34-.5-.68-1.01c-.36-.51-.71-1.02-.71-1.02l2.51.23s.4-.45.81-.9c.42-.45.83-.9.83-.9l-.02.03Z"/>
      <path class="cls-4" d="m74.96,4.64s.03.6.07,1.2c.02.6.04,1.19.04,1.19,0,0,.13.09.33.21.2.12.47.3.71.5.5.39.99.79.99.79,0,0-.59.13-1.18.26-.29.07-.58.14-.79.19-.21.05-.36.1-.36.1l-.74,2.26s-.07-.13-.2-.31c-.13-.17-.3-.4-.47-.63-.35-.47-.7-.93-.7-.93l-2.33.13,1.28-1.98s-.24-.57-.48-1.13c-.26-.55-.54-1.07-.54-1.07,0,0,.16.03.39.08.24.04.54.11.84.21.6.19,1.21.37,1.21.37,0,0,.48-.36.96-.73.49-.36.98-.72.98-.72h0Z"/>
      <path class="cls-3" d="m82.92,9.42s-.08.6-.16,1.2c-.09.59-.18,1.18-.18,1.18,0,0,.45.44.9.88.23.21.42.48.58.65.15.18.26.3.26.3,0,0-.6.02-1.2.04-.6.03-1.22.11-1.22.11l-1.13,2.06-1-2.1s-.58-.08-1.16-.17c-.28-.04-.57-.08-.78-.11s-.36-.04-.36-.04l1.62-1.71s-.03-.15-.08-.38c-.05-.22-.13-.5-.21-.79-.16-.58-.33-1.16-.33-1.16,0,0,.58.25,1.17.5.3.11.56.29.77.4s.35.19.35.19c0,0,.53-.27,1.07-.53.54-.26,1.09-.52,1.09-.52Z"/>
      <path class="cls-4" d="m89.51,15.23s-.19.58-.38,1.16c-.2.57-.4,1.14-.4,1.14l.72,1.04c.18.26.36.52.49.71.14.19.22.33.22.33,0,0-.15-.02-.38-.05-.23-.02-.54-.05-.85-.08-.61-.05-1.22-.1-1.22-.1l-1.48,1.84-.58-2.28s-.55-.19-1.1-.38c-.57-.15-1.15-.29-1.15-.29l1.91-1.42s-.04-.59-.08-1.19c-.05-.61-.11-1.21-.11-1.21l2.09,1.43,1.14-.33c.58-.16,1.15-.31,1.15-.31h.01Z"/>
      <path class="cls-3" d="m95.23,22.26s-.29.54-.58,1.08c-.3.53-.6,1.06-.6,1.06l1.01,2.31s-.59-.17-1.18-.35c-.58-.16-1.17-.32-1.17-.32l-1.79,1.56-.15-2.36s-.13-.07-.31-.18c-.19-.11-.47-.23-.74-.36-.53-.25-1.07-.5-1.07-.5l2.13-1.05s.07-.6.14-1.19c.06-.61.12-1.22.12-1.22l1.78,1.8s.61-.08,1.22-.15,1.19-.11,1.19-.11v-.02Z"/>
      <path class="cls-4" d="m99.55,30.23s-.35.47-.75.95l-.78.94.56,2.46s-.55-.28-1.09-.55c-.54-.26-1.08-.53-1.08-.53l-2.04,1.22.15-1.17c.04-.3.07-.59.1-.82.01-.22.02-.36.02-.36l-1.91-1.4,2.28-.66.36-1.16.34-1.18,1.4,2.1s.61.03,1.22.07c.61.04,1.22.09,1.22.09Z"/>
      <path class="cls-3" d="m102.41,38.72s-.44.4-.88.81c-.44.39-.89.78-.89.78,0,0,.02.16.02.4s.02.56.03.87c.02.63.04,1.26.04,1.26,0,0-.48-.37-.96-.74-.48-.35-.96-.71-.96-.71l-2.23.86s.2-.56.36-1.13c.13-.57.26-1.13.26-1.13l-1.6-1.72,2.35-.26s.28-.54.57-1.08c.14-.28.28-.55.38-.76.11-.21.17-.35.17-.35,0,0,.07.14.16.36.09.22.21.51.34.8.25.58.49,1.16.49,1.16,0,0,.59.14,1.18.28.59.15,1.18.3,1.18.3h0Z"/>
      <path class="cls-4" d="m103.81,47.66s-.51.32-1.02.64c-.51.31-1.02.62-1.02.62,0,0-.03.63-.09,1.26-.1.63-.21,1.25-.21,1.25l-.8-.89c-.38-.44-.85-.86-.85-.86l-2.31.46.96-2.12-1.24-1.98,2.35.15s.39-.48.75-.97c.34-.49.67-.99.67-.99,0,0,.05.15.12.38.06.23.19.53.24.84.13.62.26,1.23.26,1.23,0,0,.55.24,1.1.48.55.25,1.1.5,1.1.5h-.01Z"/>
    </g>
    <g id="Park_word" data-name="Park word">
      <path class="cls-3" d="m35.43,83.41h-4.17v2.47h.72v8.21h-.72v2.49h4.14v-2.49h-.78v-2.92h.98c1.84,0,3.38-1.24,3.38-3.73,0-2.15-.56-4.03-3.55-4.03Zm-.23,5.72h-.58v-3.27h.64c.75,0,1.2.6,1.2,1.71,0,1-.51,1.56-1.26,1.56Z"/>
      <path class="cls-3" d="m46.4,83.4h-4.94v2.43h.53l-1.74,8.27h-.88v2.47h4.09v-2.47h-1l.27-1.28h2.64l.27,1.28h-1.22v2.46h5.16v-2.47h-.9l-2.28-10.69Zm-3.19,7.16l.84-4.07.85,4.07h-1.69Z"/>
      <path class="cls-3" d="m58.26,93.37c0,.37-.11.6-.3.6-.23,0-.31-.47-.31-1.28,0-1.35-.8-2.48-1.69-2.67,1.07-.23,1.87-1.26,1.87-2.73,0-2.15-.57-3.88-3.56-3.88h-4.2v2.47h.72v8.21h-.72v2.49h4.16v-2.49h-.78v-2.92c1.15,0,1.29.42,1.29,2.13,0,2.2.81,3.5,2.5,3.5,1.43,0,1.88-1.45,1.88-3.01v-1.04h-.86v.62Zm-4.22-4.31h-.57v-3.2h.64c.75,0,1.17.57,1.17,1.68,0,.99-.49,1.52-1.24,1.52Z"/>
      <polygon class="cls-3" points="68.66 94.12 66.06 88.19 67.93 85.84 68.68 85.84 68.68 83.41 64.39 83.41 64.39 85.84 65.32 85.84 62.93 88.91 62.93 85.84 63.62 85.84 63.62 83.41 59.57 83.41 59.57 85.84 60.26 85.84 60.26 94.12 59.57 94.12 59.57 96.57 63.62 96.57 63.62 94.12 62.93 94.12 62.93 92.11 63.88 90.92 65.27 94.12 64.39 94.12 64.39 96.57 69.41 96.57 69.41 94.12 68.66 94.12"/>
    </g>
    <rect id="line" class="cls-4" y="62.37" width="105.55" height="1.65"/>
    <rect id="line-2" data-name="line" class="cls-4" x=".05" y="79.21" width="105.55" height="1.65"/>
    <g id="Extraganza">
      <path class="cls-3" d="m33.25,65.51h2.59v1.49h-1.07v3.54h1.07v1.46h-1.07v3.27h1.07v1.48h-2.59v-11.24Z"/>
      <path class="cls-3" d="m36.19,68.09h1.26l.31,3.22.32-3.22h1.28l-1.09,4.16,1.09,4.49h-1.33l-.27-3.38-.31,3.38h-1.36l1.13-4.49-1.03-4.16Z"/>
      <path class="cls-3" d="m41.21,66.7h.38v1.39h.63v1.13h-.63v5.93c0,.14.03.24.1.32s.15.11.24.11c.08,0,.18-.03.28-.1v1.12c-.23.16-.46.23-.69.23-.37,0-.68-.13-.91-.39s-.35-.63-.35-1.1v-6.12h-.67v-.39c.39-.4.93-1.11,1.6-2.13Z"/>
      <path class="cls-3" d="m44.11,69.25c.05-.08.1-.19.15-.34.14-.39.31-.65.5-.77.13-.09.31-.13.56-.13v1.63c-.34.09-.6.26-.79.51-.28.36-.41.67-.41.92v5.67h-1.32v-7.11c0-.28-.1-.5-.3-.67l.8-.96c.27.1.45.23.57.39.11.16.2.44.25.86Z"/>
      <path class="cls-3" d="m47.18,76.1c-.29.49-.58.74-.89.74s-.56-.17-.76-.52c-.32-.55-.47-1.65-.47-3.32v-1.04c0-1.36.29-2.39.86-3.12.44-.55,1.03-.83,1.78-.83h.61v6.48c0,.4.03.68.09.84s.14.29.25.39l-.76,1.11c-.16-.05-.29-.12-.39-.22-.1-.1-.21-.27-.32-.52Zm-.19-6.43c-.21.11-.37.31-.47.58s-.15.81-.15,1.62v1.59c0,1.01.07,1.66.2,1.95.06.12.13.19.22.19.09,0,.16-.03.2-.09v-5.83Z"/>
      <path class="cls-3" d="m50.57,68.09h1.3l-1.03,8.74h-1.2l-1.06-8.74h1.29l.38,7.05.33-7.05Z"/>
      <path class="cls-3" d="m54.14,76.1c-.29.49-.58.74-.89.74s-.56-.17-.76-.52c-.32-.55-.47-1.65-.47-3.32v-1.04c0-1.36.29-2.39.86-3.12.44-.55,1.03-.83,1.78-.83h.61v6.48c0,.4.03.68.09.84s.14.29.25.39l-.76,1.11c-.16-.05-.29-.12-.39-.22-.1-.1-.21-.27-.32-.52Zm-.19-6.43c-.21.11-.37.31-.47.58s-.15.81-.15,1.62v1.59c0,1.01.07,1.66.2,1.95.06.12.13.19.22.19.09,0,.16-.03.2-.09v-5.83Z"/>
      <path class="cls-3" d="m59.05,68v8.54c0,.57-.16,1.02-.48,1.35-.32.34-.75.5-1.27.5-.21,0-.41-.03-.59-.09-.18-.06-.43-.17-.74-.34l.41-1.14c.29.17.54.26.75.26s.35-.05.45-.15c.1-.1.15-.24.15-.41v-.37c-.21.29-.45.43-.69.43-.29,0-.54-.17-.74-.52-.34-.6-.51-1.72-.51-3.37,0-1.2.11-2.12.32-2.78.21-.65.52-1.14.92-1.45.4-.31.87-.47,1.42-.47h.6Zm-1.32,1.56c-.19.12-.33.31-.44.58-.1.27-.16.72-.16,1.36v1.92c0,.87.05,1.41.16,1.63.06.12.15.19.25.19.09,0,.14-.02.18-.06v-5.62Z"/>
      <path class="cls-3" d="m61.75,76.1c-.29.49-.58.74-.89.74s-.56-.17-.76-.52c-.32-.55-.47-1.65-.47-3.32v-1.04c0-1.36.29-2.39.86-3.12.44-.55,1.03-.83,1.78-.83h.61v6.48c0,.4.03.68.09.84s.14.29.25.39l-.76,1.11c-.16-.05-.29-.12-.39-.22-.1-.1-.21-.27-.32-.52Zm-.19-6.43c-.21.11-.37.31-.47.58s-.15.81-.15,1.62v1.59c0,1.01.07,1.66.2,1.95.06.12.13.19.22.19.09,0,.16-.03.2-.09v-5.83Z"/>
      <path class="cls-3" d="m64.33,68c.27.09.49.29.66.61.2-.25.37-.42.5-.49s.28-.11.46-.11c.29,0,.54.13.75.38s.31.63.31,1.14v7.23h-1.32v-7.1c0-.11-.03-.19-.09-.26s-.13-.1-.21-.1c-.05,0-.1.02-.15.06s-.1.09-.14.17v7.23h-1.32v-7.1c0-.34-.09-.57-.26-.7l.83-.94Z"/>
      <path class="cls-3" d="m67.55,68.09h2.45l-1.08,7.65h1.08v1.01h-2.5l1.09-7.64h-1.05v-1.01Z"/>
      <path class="cls-3" d="m72.49,76.1c-.29.49-.58.74-.89.74s-.56-.17-.76-.52c-.32-.55-.47-1.65-.47-3.32v-1.04c0-1.36.29-2.39.86-3.12.44-.55,1.03-.83,1.78-.83h.61v6.48c0,.4.03.68.09.84s.14.29.25.39l-.76,1.11c-.16-.05-.29-.12-.39-.22-.1-.1-.21-.27-.32-.52Zm-.19-6.43c-.21.11-.37.31-.47.58s-.15.81-.15,1.62v1.59c0,1.01.07,1.66.2,1.95.06.12.13.19.22.19.09,0,.16-.03.2-.09v-5.83Z"/>
    </g>
  </g>
</svg>